<svg width="200" height="200" xmlns="http://www.w3.org/2000/svg"><path fill="#fff" stroke="#000" stroke-linejoin="round" stroke-width="20" d="M36.952 28.643h126.097V178.2H36.952z"/><path d="M140.042 44.57c-.888-16.096-19.926-14.316-19.926-21.02 0-4.269 0-18.746-20.116-18.684-19.888.061-19.894 14.242-19.892 18.684.004 7.481-18.757 4.543-19.974 20.827" stroke="#fff" stroke-width="12"/><g stroke="#000" stroke-width="15"><path d="M122.252 89.029c-1.747-11.398-29.968-26.448-37.251.823-1.973 7.387 5.783 22.106 5.44 27.032.428 13.838-11.15 19.451-12.198 24.23 17.28-7.043 33.624.558 37.25.989 5.686.676 9.726-4.12 9.726-4.12" fill="none"/><path d="M74.782 107.489h34.53"/></g></svg>